<svg class="svg-icon" style="width: 1em; height: 1em;vertical-align: middle;fill:#3B0093;overflow: hidden;" viewBox="0 0 1024 1024" version="1.1" xmlns="http://www.w3.org/2000/svg"><path d="M345.714286 704.571429q87.428571 0 146.857143-59.428572 8-10.285714 1.714285-20.571428l-25.714285-46.857143q-3.428571-7.428571-13.714286-9.714286-9.142857-1.142857-15.428572 6.285714l-2.285714 1.714286q-2.285714 2.285714-6.571428 5.714286t-10 7.428571-13.428572 8.285714T390.857143 605.142857t-19.142857 5.428572-21.428572 2q-43.428571 0-71.428571-28.571429t-28-72.571429q0-43.428571 27.428571-71.714285T348 411.428571q21.142857 0 40.857143 8t28.857143 16l9.142857 8q6.285714 6.285714 14.857143 5.714286 9.142857-1.142857 13.714285-8l30.285715-44.571428q7.428571-11.428571-1.142857-22.285715-1.714286-2.285714-6.285715-6.857143t-17.142857-13.428571-27.714286-16T394.857143 325.142857t-49.142857-5.714286q-84.571429 0-140.571429 55.142858T149.142857 512q0 83.428571 55.428572 138t141.142857 54.571429z m360 0q87.428571 0 146.857143-59.428572 8-10.285714 2.285714-20.571428l-25.714286-46.857143q-4.571429-8-14.285714-9.714286-9.142857-1.142857-15.428572 6.285714l-2.285714 1.714286q-2.285714 2.285714-6.571428 5.714286t-10 7.428571-13.428572 8.285714-16.285714 7.714286-19.142857 5.428572-21.428572 2q-43.428571 0-71.428571-28.571429t-28-72.571429q0-43.428571 27.428571-71.714285t69.714286-28.285715q21.142857 0 40.857143 8t28.857143 16l9.142857 8q6.285714 6.285714 14.857143 5.714286 9.142857-1.142857 13.714285-8l30.285715-44.571428q7.428571-11.428571-1.142857-22.285715-1.714286-2.285714-6.285715-6.857143t-17.142857-13.428571-27.714286-16T754.857143 325.142857t-49.142857-5.714286q-84 0-140.285715 55.142858T509.142857 512q0 83.428571 55.428572 138t141.142857 54.571429zM512 91.428571q-85.714286 0-163.428571 33.428572t-134 89.714286-89.714286 134T91.428571 512t33.428572 163.428571 89.714286 134 134 89.714286 163.428571 33.428572 163.428571-33.428572 134-89.714286 89.714286-134 33.428572-163.428571-33.428572-163.428571-89.714286-134-134-89.714286T512 91.428571z m0-91.428571q104 0 198.857143 40.571429t163.428571 109.142857 109.142857 163.428571 40.571429 198.857143-40.571429 198.857143-109.142857 163.428571-163.428571 109.142857-198.857143 40.571429-198.857143-40.571429-163.428571-109.142857-109.142857-163.428571T0 512t40.571429-198.857143 109.142857-163.428571T313.142857 40.571429 512 0z"  /></svg>