<svg class="svg-icon" style="width: 1em; height: 1em;vertical-align: middle;fill: #3B0093;overflow: hidden;" viewBox="0 0 1024 1024" version="1.1" xmlns="http://www.w3.org/2000/svg"><path d="M785.066667 477.866667 610.133333 486.4 708.266667 375.466667C716.8 362.666667 721.066667 341.333333 716.8 320 712.533333 307.2 708.266667 294.4 695.466667 285.866667L465.066667 149.333333C448 136.533333 422.4 140.8 405.333333 153.6L290.133333 260.266667C268.8 281.6 264.533333 311.466667 285.866667 332.8 302.933333 354.133333 337.066667 354.133333 358.4 337.066667L443.733333 260.266667 524.8 307.2 345.6 490.666667C341.333333 494.933333 341.333333 499.2 337.066667 499.2 315.733333 507.733333 294.4 516.266667 277.333333 529.066667L341.333333 593.066667C362.666667 584.533333 384 576 405.333333 576 486.4 576 554.666667 644.266667 554.666667 725.333333 554.666667 750.933333 550.4 772.266667 537.6 789.333333L601.6 853.333333C627.2 814.933333 640 772.266667 640 725.333333 640 674.133333 622.933333 622.933333 593.066667 584.533333L733.866667 571.733333 725.333333 776.533333C721.066667 806.4 742.4 827.733333 772.266667 832L776.533333 832C802.133333 832 823.466667 810.666667 827.733333 785.066667L836.266667 533.333333C836.266667 520.533333 832 503.466667 823.466667 494.933333 810.666667 482.133333 797.866667 477.866667 785.066667 477.866667M768 234.666667C814.933333 234.666667 853.333333 196.266667 853.333333 149.333333 853.333333 102.4 814.933333 64 768 64 721.066667 64 682.666667 102.4 682.666667 149.333333 682.666667 196.266667 721.066667 234.666667 768 234.666667M533.333333 921.6C494.933333 947.2 452.266667 960 405.333333 960 277.333333 960 170.666667 853.333333 170.666667 725.333333 170.666667 678.4 183.466667 635.733333 209.066667 597.333333L273.066667 661.333333C264.533333 682.666667 256 704 256 725.333333 256 806.4 324.266667 874.666667 405.333333 874.666667 430.933333 874.666667 452.266667 870.4 469.333333 857.6L533.333333 921.6Z"  /></svg>